# xmcd
#
# Track frame offsets: 
#        150
#        27267
#        49072
#        55200
#        70057
#        95260
#        122382
#        145852
#        156925
#        184047
#        200867
#        218132
#        251190
#        266230
#
# Disc length: 3779 seconds
#
# Revision: 1
# Processed by: cddbd v1.5.2PL0 Copyright (c) Steve Scherf et al.
# Submitted via: ExactAudioCopy v0.99pb5
#
DISCID=d10ec10e
DTITLE=Blind Guardian - Tales From The Twilight World +A Past And Futu
DTITLE=re Secret
DYEAR=1990
DGENRE=Power Metal
TTITLE0=01.Traveler In Time
TTITLE1=02.Welcome To Dying
TTITLE2=03.Weird Dreams
TTITLE3=04.Lord Of The Rings
TTITLE4=05.Goodye My Friend
TTITLE5=06.Lost In The Twilight Hall
TTITLE6=07.Tommyknockers
TTITLE7=08.Altair 4
TTITLE8=09.The Last Candle
TTITLE9=10.Run For The Night (Live)
TTITLE10=11.A Past And Future Secret
TTITLE11=12.Imaginations From The Other Side
TTITLE12=13.The Wizard
TTITLE13=14.A Past And Future Secret (Orchestra mix)
EXTD=
EXTT0=
EXTT1=
EXTT2=
EXTT3=
EXTT4=
EXTT5=
EXTT6=
EXTT7=
EXTT8=
EXTT9=
EXTT10=
EXTT11=
EXTT12=
EXTT13=
PLAYORDER=
